# Blender v2.77 (sub 0) OBJ File: ''
# www.blender.org
v -1.860817 -1.540598 0.484284
v -1.860817 -0.137534 0.484284
v -1.860817 -1.540598 0.573350
v -1.860817 -0.137534 0.573350
v -1.728171 -1.540598 0.484284
v -1.728171 -0.137534 0.484284
v -1.728171 -1.540598 0.573350
v -1.728171 -0.137534 0.573350
vn 1.0000 0.0000 0.0000
vn 0.0000 0.0000 -1.0000
vn -1.0000 0.0000 0.0000
vn 0.0000 0.0000 1.0000
vn 0.0000 1.0000 0.0000
vn 0.0000 -1.0000 0.0000
s off
f 4//1 1//1 2//1
f 8//2 3//2 4//2
f 6//3 7//3 8//3
f 2//4 5//4 6//4
f 3//5 5//5 1//5
f 8//6 2//6 6//6
f 4//1 3//1 1//1
f 8//2 7//2 3//2
f 6//3 5//3 7//3
f 2//4 1//4 5//4
f 3//5 7//5 5//5
f 8//6 4//6 2//6
v 1.496394 -1.810208 -0.472669
v 1.496394 -0.122093 -0.472669
v 1.496394 -1.810208 -0.615657
v 1.496394 -0.122093 -0.615657
v 1.355960 -1.810208 -0.472669
v 1.355960 -0.122093 -0.472669
v 1.355960 -1.810208 -0.615657
v 1.355960 -0.122093 -0.615657
vn -1.0000 0.0000 0.0000
vn 0.0000 0.0000 1.0000
vn 1.0000 0.0000 0.0000
vn 0.0000 0.0000 -1.0000
vn 0.0000 1.0000 0.0000
vn 0.0000 -1.0000 0.0000
s off
f 12//7 9//7 10//7
f 16//8 11//8 12//8
f 14//9 15//9 16//9
f 10//10 13//10 14//10
f 11//11 13//11 9//11
f 16//12 10//12 14//12
f 12//7 11//7 9//7
f 16//8 15//8 11//8
f 14//9 13//9 15//9
f 10//10 9//10 13//10
f 11//11 15//11 13//11
f 16//12 12//12 10//12
v 1.526983 -1.671545 0.682672
v 1.526983 -0.103926 0.682672
v 1.526983 -1.671545 0.524184
v 1.526983 -0.103926 0.524184
v 1.654574 -1.671545 0.682672
v 1.654574 -0.103926 0.682672
v 1.654574 -1.671545 0.524184
v 1.654574 -0.103926 0.524184
vn -1.0000 0.0000 0.0000
vn 0.0000 0.0000 -1.0000
vn 1.0000 0.0000 0.0000
vn 0.0000 0.0000 1.0000
vn 0.0000 -1.0000 0.0000
vn 0.0000 1.0000 0.0000
s off
f 20//13 17//13 18//13
f 24//14 19//14 20//14
f 22//15 23//15 24//15
f 18//16 21//16 22//16
f 19//17 21//17 17//17
f 24//18 18//18 22//18
f 20//13 19//13 17//13
f 24//14 23//14 19//14
f 22//15 21//15 23//15
f 18//16 17//16 21//16
f 19//17 23//17 21//17
f 24//18 20//18 18//18
v 1.982372 -0.097524 -1.000000
v 1.982372 -0.097524 1.000000
v -1.982372 -0.097524 1.000000
v -1.982371 -0.097524 -1.000000
v 1.982373 0.097524 -0.999999
v 1.982370 0.097524 1.000001
v -1.982372 0.097524 1.000000
v -1.982372 0.097524 -1.000000
vn 0.0000 -1.0000 0.0000
vn 0.0000 1.0000 -0.0000
vn 1.0000 -0.0000 0.0000
vn 0.0000 -0.0000 1.0000
vn -1.0000 -0.0000 -0.0000
vn 0.0000 0.0000 -1.0000
s off
f 26//19 28//19 25//19
f 32//20 30//20 29//20
f 29//21 26//21 25//21
f 30//22 27//22 26//22
f 31//23 28//23 27//23
f 25//24 32//24 29//24
f 26//19 27//19 28//19
f 32//20 31//20 30//20
f 29//21 30//21 26//21
f 30//22 31//22 27//22
f 31//23 32//23 28//23
f 25//24 28//24 32//24
v 1.526983 -1.671545 0.682672
v 1.526983 -0.103926 0.682672
v 1.526983 -1.671545 0.524184
v 1.526983 -0.103926 0.524184
v 1.654574 -1.671545 0.682672
v 1.654574 -0.103926 0.682672
v 1.654574 -1.671545 0.524184
v 1.654574 -0.103926 0.524184
vn -1.0000 0.0000 0.0000
vn 0.0000 0.0000 -1.0000
vn 1.0000 0.0000 0.0000
vn 0.0000 0.0000 1.0000
vn 0.0000 -1.0000 0.0000
vn 0.0000 1.0000 0.0000
s off
f 36//25 33//25 34//25
f 40//26 35//26 36//26
f 38//27 39//27 40//27
f 34//28 37//28 38//28
f 35//29 37//29 33//29
f 40//30 34//30 38//30
f 36//25 35//25 33//25
f 40//26 39//26 35//26
f 38//27 37//27 39//27
f 34//28 33//28 37//28
f 35//29 39//29 37//29
f 40//30 36//30 34//30
v 1.526983 -1.671545 0.682672
v 1.526983 -0.103926 0.682672
v 1.526983 -1.671545 0.524184
v 1.526983 -0.103926 0.524184
v 1.654574 -1.671545 0.682672
v 1.654574 -0.103926 0.682672
v 1.654574 -1.671545 0.524184
v 1.654574 -0.103926 0.524184
vn -1.0000 0.0000 0.0000
vn 0.0000 0.0000 -1.0000
vn 1.0000 0.0000 0.0000
vn 0.0000 0.0000 1.0000
vn 0.0000 -1.0000 0.0000
vn 0.0000 1.0000 0.0000
s off
f 44//31 41//31 42//31
f 48//32 43//32 44//32
f 46//33 47//33 48//33
f 42//34 45//34 46//34
f 43//35 45//35 41//35
f 48//36 42//36 46//36
f 44//31 43//31 41//31
f 48//32 47//32 43//32
f 46//33 45//33 47//33
f 42//34 41//34 45//34
f 43//35 47//35 45//35
f 48//36 44//36 42//36
